<svg width="28" height="28" viewBox="0 0 28 28" fill="none" xmlns="http://www.w3.org/2000/svg">
<path d="M13.99 25.6483C20.4287 25.6483 25.6483 20.4287 25.6483 13.99C25.6483 7.55128 20.4287 2.33167 13.99 2.33167C7.55128 2.33167 2.33167 7.55128 2.33167 13.99C2.33167 20.4287 7.55128 25.6483 13.99 25.6483Z" stroke="white" stroke-width="2" stroke-linecap="round" stroke-linejoin="round"/>
<path d="M13.99 20.985C17.8532 20.985 20.985 17.8532 20.985 13.99C20.985 10.1268 17.8532 6.995 13.99 6.995C10.1268 6.995 6.995 10.1268 6.995 13.99C6.995 17.8532 10.1268 20.985 13.99 20.985Z" stroke="white" stroke-width="2" stroke-linecap="round" stroke-linejoin="round"/>
<path d="M13.99 16.3217C15.2777 16.3217 16.3217 15.2777 16.3217 13.99C16.3217 12.7022 15.2777 11.6583 13.99 11.6583C12.7022 11.6583 11.6583 12.7022 11.6583 13.99C11.6583 15.2777 12.7022 16.3217 13.99 16.3217Z" stroke="white" stroke-width="2" stroke-linecap="round" stroke-linejoin="round"/>
</svg>
