<svg width="72" height="39" viewBox="0 0 72 39" fill="none" xmlns="http://www.w3.org/2000/svg">
<path d="M35.5721 18.085C34.7262 19.7272 33.592 21.2039 32.2236 22.4449C31.3613 23.3075 30.2625 23.895 29.0662 24.1331C27.8699 24.3712 26.6299 24.2492 25.503 23.7825C24.3761 23.3158 23.4129 22.5254 22.7352 21.5112C22.0575 20.4971 21.6958 19.3048 21.6958 18.085C21.6958 16.8653 22.0575 15.673 22.7352 14.6588C23.4129 13.6447 24.3761 12.8543 25.503 12.3876C26.6299 11.9209 27.8699 11.7989 29.0662 12.037C30.2625 12.2751 31.3613 12.8626 32.2236 13.7252C33.592 14.9661 34.7262 16.4429 35.5721 18.085ZM35.5721 18.085C36.4181 16.4429 37.5523 14.9661 38.9206 13.7252C39.783 12.8626 40.8818 12.2751 42.078 12.037C43.2743 11.7989 44.5143 11.9209 45.6412 12.3876C46.7681 12.8543 47.7314 13.6447 48.409 14.6588C49.0867 15.673 49.4484 16.8653 49.4484 18.085C49.4484 19.3048 49.0867 20.4971 48.409 21.5112C47.7314 22.5254 46.7681 23.3158 45.6412 23.7825C44.5143 24.2492 43.2743 24.3712 42.078 24.1331C40.8818 23.895 39.783 23.3075 38.9206 22.4449C37.5523 21.2039 36.4181 19.7272 35.5721 18.085Z" stroke="#40E0D0" stroke-width="2" stroke-linecap="round" stroke-linejoin="round"/>
<path d="M65.8922 11.4478C65.6593 14.336 62.8504 16.4656 62.8504 16.4656C62.8504 16.4656 60.4178 13.9125 60.649 11.024C60.8825 8.13233 63.6928 6.00487 63.6928 6.00487C63.6928 6.00487 66.1233 8.55927 65.8922 11.4478ZM66.5562 21.463C64.8179 23.7825 61.303 24.091 61.303 24.091C61.303 24.091 60.6056 20.6383 62.3438 18.3187C64.0821 15.9992 67.5991 15.6894 67.5991 15.6894C67.5991 15.6894 68.2961 19.1438 66.5562 21.463ZM63.2296 30.2113C60.5951 31.4279 57.3526 30.0338 57.3526 30.0338C57.3526 30.0338 58.3834 26.6657 61.0179 25.4491C63.6524 24.2325 66.8949 25.6267 66.8949 25.6267C66.8949 25.6267 65.8641 28.9947 63.2296 30.2113ZM55.488 36.2553C52.6579 36.9025 49.7728 34.8705 49.7728 34.8705C49.7728 34.8705 51.478 31.789 54.3085 31.14C57.1387 30.4928 60.0217 32.5262 60.0217 32.5262C60.0217 32.5262 58.3182 35.6081 55.488 36.2553ZM59.4531 3.5615C61.1121 5.94118 60.3017 9.36679 60.3017 9.36679C60.3017 9.36679 56.797 8.93673 55.138 6.55705C53.479 4.17738 54.2898 0.750057 54.2898 0.750057C54.2898 0.750057 57.7941 1.18183 59.4531 3.5615Z" stroke="#40E0D0" stroke-width="1.5" stroke-linejoin="round"/>
<path d="M5.52221 11.4475C5.75504 14.3357 8.56393 16.4652 8.56393 16.4652C8.56393 16.4652 10.9965 13.9122 10.7637 11.024C10.5305 8.13405 7.72161 6.00452 7.72161 6.00452C7.72161 6.00452 5.29146 8.56063 5.52221 11.4475ZM4.85479 21.4634C6.59304 23.7829 10.108 24.0914 10.108 24.0914C10.108 24.0914 10.8054 20.6387 9.06712 18.3191C7.32887 15.9996 3.81357 15.6894 3.81357 15.6894C3.81357 15.6894 3.11655 19.1438 4.85479 21.4634ZM8.18307 30.2113C10.8176 31.4279 14.0601 30.0338 14.0601 30.0338C14.0601 30.0338 13.0293 26.6657 10.3948 25.4491C7.76028 24.2326 4.51778 25.6267 4.51778 25.6267C4.51778 25.6267 5.54856 28.9947 8.18307 30.2113ZM15.9246 36.2553C18.7548 36.9025 21.6398 34.8705 21.6398 34.8705C21.6398 34.8705 19.9346 31.789 17.1041 31.1401C14.274 30.4928 11.391 32.5262 11.391 32.5262C11.391 32.5262 13.0945 35.6081 15.9246 36.2553ZM11.9595 3.56152C10.3006 5.94119 11.111 9.3668 11.111 9.3668C11.111 9.3668 14.6157 8.93674 16.2746 6.55707C17.9336 4.17739 17.1228 0.750071 17.1228 0.750071C17.1228 0.750071 13.6185 1.18184 11.9595 3.56152Z" stroke="#40E0D0" stroke-width="1.5" stroke-linejoin="round"/>
</svg>
