<svg width="72" height="44" viewBox="0 0 72 44" fill="none" xmlns="http://www.w3.org/2000/svg">
<path d="M35.7064 23.0093C34.8604 24.6515 33.7262 26.1282 32.3579 27.3692C31.4955 28.2318 30.3968 28.8193 29.2005 29.0574C28.0042 29.2955 26.7642 29.1734 25.6373 28.7068C24.5104 28.2401 23.5472 27.4497 22.8695 26.4355C22.1918 25.4214 21.8301 24.2291 21.8301 23.0093C21.8301 21.7896 22.1918 20.5973 22.8695 19.5831C23.5472 18.569 24.5104 17.7786 25.6373 17.3119C26.7642 16.8452 28.0042 16.7232 29.2005 16.9613C30.3968 17.1994 31.4955 17.7869 32.3579 18.6495C33.7262 19.8904 34.8604 21.3672 35.7064 23.0093ZM35.7064 23.0093C36.5523 21.3672 37.6865 19.8904 39.0549 18.6495C39.9172 17.7869 41.016 17.1994 42.2123 16.9613C43.4086 16.7232 44.6486 16.8452 45.7755 17.3119C46.9024 17.7786 47.8656 18.569 48.5433 19.5831C49.221 20.5973 49.5827 21.7896 49.5827 23.0093C49.5827 24.2291 49.221 25.4214 48.5433 26.4355C47.8656 27.4497 46.9024 28.2401 45.7755 28.7068C44.6486 29.1734 43.4086 29.2955 42.2123 29.0574C41.016 28.8193 39.9172 28.2318 39.0549 27.3692C37.6865 26.1282 36.5523 24.6515 35.7064 23.0093Z" stroke="#40E0D0" stroke-width="2" stroke-linecap="round" stroke-linejoin="round"/>
<path d="M65.8922 16.426C65.6593 19.3142 62.8504 21.4437 62.8504 21.4437C62.8504 21.4437 60.4178 18.8907 60.649 16.0021C60.8825 13.1105 63.6928 10.983 63.6928 10.983C63.6928 10.983 66.1233 13.5374 65.8922 16.426ZM66.5562 26.4411C64.8179 28.7607 61.303 29.0691 61.303 29.0691C61.303 29.0691 60.6056 25.6164 62.3438 23.2969C64.0821 20.9774 67.5991 20.6676 67.5991 20.6676C67.5991 20.6676 68.2961 24.122 66.5562 26.4411ZM63.2296 35.1894C60.5951 36.406 57.3526 35.0119 57.3526 35.0119C57.3526 35.0119 58.3834 31.6439 61.0179 30.4273C63.6524 29.2107 66.8949 30.6048 66.8949 30.6048C66.8949 30.6048 65.8641 33.9728 63.2296 35.1894ZM55.488 41.2334C52.6579 41.8807 49.7728 39.8487 49.7728 39.8487C49.7728 39.8487 51.478 36.7671 54.3085 36.1182C57.1387 35.471 60.0217 37.5043 60.0217 37.5043C60.0217 37.5043 58.3182 40.5862 55.488 41.2334ZM59.4531 8.53964C61.1121 10.9193 60.3017 14.3449 60.3017 14.3449C60.3017 14.3449 56.797 13.9149 55.138 11.5352C53.479 9.15552 54.2898 5.72819 54.2898 5.72819C54.2898 5.72819 57.7941 6.15997 59.4531 8.53964Z" stroke="#40E0D0" stroke-width="1.5" stroke-linejoin="round"/>
<path d="M38.9281 9.5L39.7406 5.9875L37.0156 3.625L40.6156 3.3125L42.0156 0L43.4156 3.3125L47.0156 3.625L44.2906 5.9875L45.1031 9.5L42.0156 7.6375L38.9281 9.5Z" fill="#40E0D0"/>
<path d="M26.3085 9.5L27.121 5.9875L24.396 3.625L27.996 3.3125L29.396 0L30.796 3.3125L34.396 3.625L31.671 5.9875L32.4835 9.5L29.396 7.6375L26.3085 9.5Z" fill="#40E0D0"/>
<path d="M5.52221 16.4256C5.75504 19.3138 8.56393 21.4434 8.56393 21.4434C8.56393 21.4434 10.9965 18.8903 10.7637 16.0021C10.5305 13.1122 7.72161 10.9827 7.72161 10.9827C7.72161 10.9827 5.29146 13.5388 5.52221 16.4256ZM4.85479 26.4415C6.59304 28.7611 10.108 29.0695 10.108 29.0695C10.108 29.0695 10.8054 25.6168 9.06712 23.2973C7.32887 20.9777 3.81357 20.6676 3.81357 20.6676C3.81357 20.6676 3.11655 24.122 4.85479 26.4415ZM8.18307 35.1894C10.8176 36.406 14.0601 35.0119 14.0601 35.0119C14.0601 35.0119 13.0293 31.6439 10.3948 30.4273C7.76028 29.2107 4.51778 30.6048 4.51778 30.6048C4.51778 30.6048 5.54856 33.9729 8.18307 35.1894ZM15.9246 41.2335C18.7548 41.8807 21.6398 39.8487 21.6398 39.8487C21.6398 39.8487 19.9346 36.7671 17.1041 36.1182C14.274 35.471 11.391 37.5043 11.391 37.5043C11.391 37.5043 13.0945 40.5862 15.9246 41.2335ZM11.9595 8.53966C10.3006 10.9193 11.111 14.3449 11.111 14.3449C11.111 14.3449 14.6157 13.9149 16.2746 11.5352C17.9336 9.15553 17.1228 5.72821 17.1228 5.72821C17.1228 5.72821 13.6185 6.15998 11.9595 8.53966Z" stroke="#40E0D0" stroke-width="1.5" stroke-linejoin="round"/>
</svg>
