<svg width="72" height="49" viewBox="0 0 72 49" fill="none" xmlns="http://www.w3.org/2000/svg">
<path d="M35.7059 27.7593C34.86 29.4015 33.7258 30.8782 32.3574 32.1192C31.4951 32.9818 30.3963 33.5693 29.2 33.8074C28.0037 34.0455 26.7637 33.9234 25.6368 33.4568C24.5099 32.9901 23.5467 32.1997 22.869 31.1855C22.1913 30.1714 21.8296 28.9791 21.8296 27.7593C21.8296 26.5396 22.1913 25.3473 22.869 24.3331C23.5467 23.319 24.5099 22.5286 25.6368 22.0619C26.7637 21.5952 28.0037 21.4732 29.2 21.7113C30.3963 21.9494 31.4951 22.5369 32.3574 23.3995C33.7258 24.6404 34.86 26.1172 35.7059 27.7593ZM35.7059 27.7593C36.5519 26.1172 37.6861 24.6404 39.0544 23.3995C39.9168 22.5369 41.0155 21.9494 42.2118 21.7113C43.4081 21.4732 44.6481 21.5952 45.775 22.0619C46.9019 22.5286 47.8651 23.319 48.5428 24.3331C49.2205 25.3473 49.5822 26.5396 49.5822 27.7593C49.5822 28.9791 49.2205 30.1714 48.5428 31.1855C47.8651 32.1997 46.9019 32.9901 45.775 33.4568C44.6481 33.9234 43.4081 34.0455 42.2118 33.8074C41.0155 33.5693 39.9168 32.9818 39.0544 32.1192C37.6861 30.8782 36.5519 29.4015 35.7059 27.7593Z" stroke="#40E0D0" stroke-width="2" stroke-linecap="round" stroke-linejoin="round"/>
<path d="M65.8922 21.176C65.6593 24.0642 62.8504 26.1937 62.8504 26.1937C62.8504 26.1937 60.4178 23.6407 60.649 20.7521C60.8825 17.8605 63.6928 15.733 63.6928 15.733C63.6928 15.733 66.1233 18.2874 65.8922 21.176ZM66.5562 31.1911C64.8179 33.5107 61.303 33.8191 61.303 33.8191C61.303 33.8191 60.6056 30.3664 62.3438 28.0469C64.0821 25.7274 67.5991 25.4176 67.5991 25.4176C67.5991 25.4176 68.2961 28.872 66.5562 31.1911ZM63.2296 39.9394C60.5951 41.156 57.3526 39.7619 57.3526 39.7619C57.3526 39.7619 58.3834 36.3939 61.0179 35.1773C63.6524 33.9607 66.8949 35.3548 66.8949 35.3548C66.8949 35.3548 65.8641 38.7228 63.2296 39.9394ZM55.488 45.9834C52.6579 46.6307 49.7728 44.5987 49.7728 44.5987C49.7728 44.5987 51.478 41.5171 54.3085 40.8682C57.1387 40.221 60.0217 42.2543 60.0217 42.2543C60.0217 42.2543 58.3182 45.3362 55.488 45.9834ZM59.4531 13.2896C61.1121 15.6693 60.3017 19.0949 60.3017 19.0949C60.3017 19.0949 56.797 18.6649 55.138 16.2852C53.479 13.9055 54.2898 10.4782 54.2898 10.4782C54.2898 10.4782 57.7941 10.91 59.4531 13.2896Z" stroke="#40E0D0" stroke-width="1.5" stroke-linejoin="round"/>
<path d="M32.6186 9.5L33.4311 5.9875L30.7061 3.625L34.3061 3.3125L35.7061 0L37.1061 3.3125L40.7061 3.625L37.9811 5.9875L38.7936 9.5L35.7061 7.6375L32.6186 9.5Z" fill="#40E0D0"/>
<path d="M43.9286 12.5216L44.7411 9.00911L42.0161 6.64661L45.6161 6.33411L47.0161 3.02161L48.4161 6.33411L52.0161 6.64661L49.2911 9.00911L50.1036 12.5216L47.0161 10.6591L43.9286 12.5216Z" fill="#40E0D0"/>
<path d="M21.309 12.5216L22.1215 9.00911L19.3965 6.64661L22.9965 6.33411L24.3965 3.02161L25.7965 6.33411L29.3965 6.64661L26.6715 9.00911L27.484 12.5216L24.3965 10.6591L21.309 12.5216Z" fill="#40E0D0"/>
<path d="M5.52221 21.1756C5.75504 24.0638 8.56393 26.1934 8.56393 26.1934C8.56393 26.1934 10.9965 23.6403 10.7637 20.7521C10.5305 17.8622 7.72161 15.7327 7.72161 15.7327C7.72161 15.7327 5.29146 18.2888 5.52221 21.1756ZM4.85479 31.1915C6.59304 33.5111 10.108 33.8195 10.108 33.8195C10.108 33.8195 10.8054 30.3668 9.06712 28.0473C7.32887 25.7277 3.81357 25.4176 3.81357 25.4176C3.81357 25.4176 3.11655 28.872 4.85479 31.1915ZM8.18307 39.9394C10.8176 41.156 14.0601 39.7619 14.0601 39.7619C14.0601 39.7619 13.0293 36.3939 10.3948 35.1773C7.76028 33.9607 4.51778 35.3548 4.51778 35.3548C4.51778 35.3548 5.54856 38.7229 8.18307 39.9394ZM15.9246 45.9835C18.7548 46.6307 21.6398 44.5987 21.6398 44.5987C21.6398 44.5987 19.9346 41.5171 17.1041 40.8682C14.274 40.221 11.391 42.2543 11.391 42.2543C11.391 42.2543 13.0945 45.3362 15.9246 45.9835ZM11.9595 13.2897C10.3006 15.6693 11.111 19.0949 11.111 19.0949C11.111 19.0949 14.6157 18.6649 16.2746 16.2852C17.9336 13.9055 17.1228 10.4782 17.1228 10.4782C17.1228 10.4782 13.6185 10.91 11.9595 13.2897Z" stroke="#40E0D0" stroke-width="1.5" stroke-linejoin="round"/>
</svg>
