<svg width="72" height="48" viewBox="0 0 72 48" fill="none" xmlns="http://www.w3.org/2000/svg">
<path d="M35.7059 26.9877C34.86 28.6299 33.7258 30.1066 32.3574 31.3475C31.4951 32.2102 30.3963 32.7977 29.2 33.0358C28.0037 33.2738 26.7637 33.1518 25.6368 32.6852C24.5099 32.2185 23.5467 31.4281 22.869 30.4139C22.1913 29.3998 21.8296 28.2074 21.8296 26.9877C21.8296 25.768 22.1913 24.5756 22.869 23.5615C23.5467 22.5474 24.5099 21.757 25.6368 21.2903C26.7637 20.8236 28.0037 20.7016 29.2 20.9397C30.3963 21.1778 31.4951 21.7653 32.3574 22.6279C33.7258 23.8688 34.86 25.3456 35.7059 26.9877ZM35.7059 26.9877C36.5519 25.3456 37.6861 23.8688 39.0544 22.6279C39.9168 21.7653 41.0155 21.1778 42.2118 20.9397C43.4081 20.7016 44.6481 20.8236 45.775 21.2903C46.9019 21.757 47.8651 22.5474 48.5428 23.5615C49.2205 24.5756 49.5822 25.768 49.5822 26.9877C49.5822 28.2074 49.2205 29.3998 48.5428 30.4139C47.8651 31.4281 46.9019 32.2185 45.775 32.6852C44.6481 33.1518 43.4081 33.2738 42.2118 33.0358C41.0155 32.7977 39.9168 32.2102 39.0544 31.3475C37.6861 30.1066 36.5519 28.6299 35.7059 26.9877Z" stroke="#40E0D0" stroke-width="2" stroke-linecap="round" stroke-linejoin="round"/>
<path d="M65.8922 20.4044C65.6593 23.2926 62.8504 25.4221 62.8504 25.4221C62.8504 25.4221 60.4178 22.8691 60.649 19.9805C60.8825 17.0889 63.6928 14.9614 63.6928 14.9614C63.6928 14.9614 66.1233 17.5158 65.8922 20.4044ZM66.5562 30.4195C64.8179 32.7391 61.303 33.0475 61.303 33.0475C61.303 33.0475 60.6056 29.5948 62.3438 27.2753C64.0821 24.9557 67.5991 24.646 67.5991 24.646C67.5991 24.646 68.2961 28.1004 66.5562 30.4195ZM63.2296 39.1678C60.5951 40.3844 57.3526 38.9903 57.3526 38.9903C57.3526 38.9903 58.3834 35.6223 61.0179 34.4057C63.6524 33.1891 66.8949 34.5832 66.8949 34.5832C66.8949 34.5832 65.8641 37.9512 63.2296 39.1678ZM55.488 45.2118C52.6579 45.8591 49.7728 43.8271 49.7728 43.8271C49.7728 43.8271 51.478 40.7455 54.3085 40.0966C57.1387 39.4494 60.0217 41.4827 60.0217 41.4827C60.0217 41.4827 58.3182 44.5646 55.488 45.2118ZM59.4531 12.518C61.1121 14.8977 60.3017 18.3233 60.3017 18.3233C60.3017 18.3233 56.797 17.8933 55.138 15.5136C53.479 13.1339 54.2898 9.70659 54.2898 9.70659C54.2898 9.70659 57.7941 10.1384 59.4531 12.518Z" stroke="#40E0D0" stroke-width="1.5" stroke-linejoin="round"/>
<path d="M5.52221 20.404C5.75504 23.2922 8.56393 25.4218 8.56393 25.4218C8.56393 25.4218 10.9965 22.8687 10.7637 19.9805C10.5305 17.0906 7.72161 14.961 7.72161 14.961C7.72161 14.961 5.29146 17.5172 5.52221 20.404ZM4.85479 30.4199C6.59304 32.7394 10.108 33.0479 10.108 33.0479C10.108 33.0479 10.8054 29.5952 9.06712 27.2757C7.32887 24.9561 3.81357 24.646 3.81357 24.646C3.81357 24.646 3.11655 28.1004 4.85479 30.4199ZM8.18307 39.1678C10.8176 40.3844 14.0601 38.9903 14.0601 38.9903C14.0601 38.9903 13.0293 35.6223 10.3948 34.4057C7.76028 33.1891 4.51778 34.5832 4.51778 34.5832C4.51778 34.5832 5.54856 37.9512 8.18307 39.1678ZM15.9246 45.2119C18.7548 45.8591 21.6398 43.8271 21.6398 43.8271C21.6398 43.8271 19.9346 40.7455 17.1041 40.0966C14.274 39.4494 11.391 41.4827 11.391 41.4827C11.391 41.4827 13.0945 44.5646 15.9246 45.2119ZM11.9595 12.518C10.3006 14.8977 11.111 18.3233 11.111 18.3233C11.111 18.3233 14.6157 17.8933 16.2746 15.5136C17.9336 13.1339 17.1228 9.7066 17.1228 9.7066C17.1228 9.7066 13.6185 10.1384 11.9595 12.518Z" stroke="#40E0D0" stroke-width="1.5" stroke-linejoin="round"/>
<g clip-path="url(#clip0_195_45)">
<path d="M36.2894 2.89844C36.6061 2.70703 36.8172 2.35977 36.8172 1.96875C36.8172 1.36445 36.3199 0.875 35.7061 0.875C35.0922 0.875 34.5949 1.36445 34.5949 1.96875C34.5949 2.3625 34.8061 2.70703 35.1227 2.89844L33.5311 6.03203C33.2783 6.52969 32.6227 6.67188 32.1811 6.32461L29.7061 4.375C29.8449 4.1918 29.9283 3.96484 29.9283 3.71875C29.9283 3.11445 29.4311 2.625 28.8172 2.625C28.2033 2.625 27.7061 3.11445 27.7061 3.71875C27.7061 4.32305 28.2033 4.8125 28.8172 4.8125H28.8366L30.1061 11.6867C30.2588 12.518 30.9949 13.125 31.8561 13.125H39.5561C40.4144 13.125 41.1505 12.5207 41.3061 11.6867L42.5755 4.8125H42.5949C43.2088 4.8125 43.7061 4.32305 43.7061 3.71875C43.7061 3.11445 43.2088 2.625 42.5949 2.625C41.9811 2.625 41.4838 3.11445 41.4838 3.71875C41.4838 3.96484 41.5672 4.1918 41.7061 4.375L39.2311 6.32461C38.7894 6.67188 38.1338 6.52969 37.8811 6.03203L36.2894 2.89844Z" fill="#40E0D0"/>
</g>
<defs>
<clipPath id="clip0_195_45">
<rect width="16" height="14" fill="white" transform="translate(27.7061)"/>
</clipPath>
</defs>
</svg>
