<svg width="20" height="20" viewBox="0 0 20 20" fill="none" xmlns="http://www.w3.org/2000/svg">
<path d="M16.6667 6.66663H3.33333C2.8731 6.66663 2.5 7.03972 2.5 7.49996V9.16663C2.5 9.62686 2.8731 9.99996 3.33333 9.99996H16.6667C17.1269 9.99996 17.5 9.62686 17.5 9.16663V7.49996C17.5 7.03972 17.1269 6.66663 16.6667 6.66663Z" stroke="white" stroke-linecap="round" stroke-linejoin="round"/>
<path d="M10 6.66663V17.5" stroke="white" stroke-linecap="round" stroke-linejoin="round"/>
<path d="M15.8334 10V15.8333C15.8334 16.2754 15.6578 16.6993 15.3452 17.0118C15.0326 17.3244 14.6087 17.5 14.1667 17.5H5.83335C5.39133 17.5 4.9674 17.3244 4.65484 17.0118C4.34228 16.6993 4.16669 16.2754 4.16669 15.8333V10" stroke="white" stroke-linecap="round" stroke-linejoin="round"/>
<path d="M6.25002 6.66666C5.69749 6.66666 5.16758 6.44717 4.77688 6.05647C4.38618 5.66577 4.16669 5.13587 4.16669 4.58333C4.16669 4.0308 4.38618 3.50089 4.77688 3.11019C5.16758 2.71949 5.69749 2.5 6.25002 2.5C7.05393 2.48599 7.84171 2.87605 8.51063 3.6193C9.17956 4.36255 9.69858 5.4245 10 6.66666C10.3015 5.4245 10.8205 4.36255 11.4894 3.6193C12.1583 2.87605 12.9461 2.48599 13.75 2.5C14.3026 2.5 14.8325 2.71949 15.2232 3.11019C15.6139 3.50089 15.8334 4.0308 15.8334 4.58333C15.8334 5.13587 15.6139 5.66577 15.2232 6.05647C14.8325 6.44717 14.3026 6.66666 13.75 6.66666" stroke="white" stroke-linecap="round" stroke-linejoin="round"/>
</svg>
