<svg width="72" height="39" viewBox="0 0 72 39" fill="none" xmlns="http://www.w3.org/2000/svg">
<path d="M65.8922 11.4478C65.6593 14.336 62.8504 16.4656 62.8504 16.4656C62.8504 16.4656 60.4178 13.9125 60.649 11.0239C60.8825 8.13232 63.6928 6.00486 63.6928 6.00486C63.6928 6.00486 66.1233 8.55926 65.8922 11.4478ZM66.5562 21.463C64.8179 23.7825 61.303 24.091 61.303 24.091C61.303 24.091 60.6056 20.6383 62.3438 18.3187C64.0821 15.9992 67.5991 15.6894 67.5991 15.6894C67.5991 15.6894 68.2961 19.1438 66.5562 21.463ZM63.2296 30.2113C60.5951 31.4279 57.3526 30.0338 57.3526 30.0338C57.3526 30.0338 58.3834 26.6657 61.0179 25.4491C63.6524 24.2325 66.8949 25.6267 66.8949 25.6267C66.8949 25.6267 65.8641 28.9947 63.2296 30.2113ZM55.488 36.2553C52.6579 36.9025 49.7728 34.8705 49.7728 34.8705C49.7728 34.8705 51.478 31.789 54.3085 31.14C57.1387 30.4928 60.0217 32.5262 60.0217 32.5262C60.0217 32.5262 58.3182 35.6081 55.488 36.2553ZM59.4531 3.56149C61.1121 5.94117 60.3017 9.36678 60.3017 9.36678C60.3017 9.36678 56.797 8.93672 55.138 6.55704C53.479 4.17737 54.2898 0.750045 54.2898 0.750045C54.2898 0.750045 57.7941 1.18182 59.4531 3.56149Z" stroke="#40E0D0" stroke-width="1.5" stroke-linejoin="round"/>
<path d="M5.52221 11.4475C5.75504 14.3357 8.56393 16.4652 8.56393 16.4652C8.56393 16.4652 10.9965 13.9122 10.7637 11.024C10.5305 8.13404 7.72161 6.00451 7.72161 6.00451C7.72161 6.00451 5.29146 8.56062 5.52221 11.4475ZM4.85479 21.4634C6.59304 23.7829 10.108 24.0913 10.108 24.0913C10.108 24.0913 10.8054 20.6387 9.06712 18.3191C7.32887 15.9996 3.81357 15.6894 3.81357 15.6894C3.81357 15.6894 3.11655 19.1438 4.85479 21.4634ZM8.18307 30.2113C10.8176 31.4279 14.0601 30.0338 14.0601 30.0338C14.0601 30.0338 13.0293 26.6657 10.3948 25.4491C7.76028 24.2325 4.51778 25.6267 4.51778 25.6267C4.51778 25.6267 5.54856 28.9947 8.18307 30.2113ZM15.9246 36.2553C18.7548 36.9025 21.6398 34.8705 21.6398 34.8705C21.6398 34.8705 19.9346 31.789 17.1041 31.14C14.274 30.4928 11.391 32.5262 11.391 32.5262C11.391 32.5262 13.0945 35.6081 15.9246 36.2553ZM11.9595 3.56151C10.3006 5.94118 11.111 9.36679 11.111 9.36679C11.111 9.36679 14.6157 8.93673 16.2746 6.55706C17.9336 4.17738 17.1228 0.750059 17.1228 0.750059C17.1228 0.750059 13.6185 1.18183 11.9595 3.56151Z" stroke="#40E0D0" stroke-width="1.5" stroke-linejoin="round"/>
<path d="M35.7065 14.3868C36.4565 11.4262 39.2892 9.9145 45.4565 9.88685C45.5551 9.88647 45.6528 9.90562 45.744 9.94318C45.8352 9.98074 45.918 10.036 45.9877 10.1057C46.0574 10.1754 46.1126 10.2582 46.1502 10.3494C46.1878 10.4406 46.2069 10.5383 46.2065 10.6368V24.1368C46.2065 24.3358 46.1275 24.5265 45.9869 24.6672C45.8462 24.8078 45.6555 24.8868 45.4565 24.8868C39.4565 24.8868 37.1386 26.0967 35.7065 27.8868M35.7065 14.3868C34.9565 11.4262 32.1239 9.9145 25.9565 9.88685C25.858 9.88647 25.7603 9.90562 25.6691 9.94318C25.5779 9.98074 25.4951 10.036 25.4254 10.1057C25.3557 10.1754 25.3004 10.2582 25.2629 10.3494C25.2253 10.4406 25.2062 10.5383 25.2065 10.6368V24.0464C25.2065 24.5095 25.4934 24.8868 25.9565 24.8868C31.9565 24.8868 34.2829 26.1056 35.7065 27.8868M35.7065 14.3868V27.8868" stroke="#40E0D0" stroke-width="1.5" stroke-linecap="round" stroke-linejoin="round"/>
</svg>
