<svg width="72" height="46" viewBox="0 0 72 46" fill="none" xmlns="http://www.w3.org/2000/svg">
<path d="M65.8922 18.054C65.6593 20.9422 62.8504 23.0717 62.8504 23.0717C62.8504 23.0717 60.4178 20.5186 60.649 17.6301C60.8825 14.7384 63.6928 12.611 63.6928 12.611C63.6928 12.611 66.1233 15.1654 65.8922 18.054ZM66.5562 28.0691C64.8179 30.3887 61.303 30.6971 61.303 30.6971C61.303 30.6971 60.6056 27.2444 62.3438 24.9249C64.0821 22.6053 67.5991 22.2955 67.5991 22.2955C67.5991 22.2955 68.2961 25.7499 66.5562 28.0691ZM63.2296 36.8174C60.5951 38.034 57.3526 36.6399 57.3526 36.6399C57.3526 36.6399 58.3834 33.2718 61.0179 32.0552C63.6524 30.8387 66.8949 32.2328 66.8949 32.2328C66.8949 32.2328 65.8641 35.6008 63.2296 36.8174ZM55.488 42.8614C52.6579 43.5086 49.7728 41.4767 49.7728 41.4767C49.7728 41.4767 51.478 38.3951 54.3085 37.7462C57.1387 37.0989 60.0217 39.1323 60.0217 39.1323C60.0217 39.1323 58.3182 42.2142 55.488 42.8614ZM59.4531 10.1676C61.1121 12.5473 60.3017 15.9729 60.3017 15.9729C60.3017 15.9729 56.797 15.5428 55.138 13.1632C53.479 10.7835 54.2898 7.35617 54.2898 7.35617C54.2898 7.35617 57.7941 7.78794 59.4531 10.1676Z" stroke="#40E0D0" stroke-width="1.5" stroke-linejoin="round"/>
<path d="M32.6186 9.5L33.4311 5.9875L30.7061 3.625L34.3061 3.3125L35.7061 0L37.1061 3.3125L40.7061 3.625L37.9811 5.9875L38.7936 9.5L35.7061 7.6375L32.6186 9.5Z" fill="#40E0D0"/>
<path d="M5.52221 18.0536C5.75504 20.9418 8.56393 23.0713 8.56393 23.0713C8.56393 23.0713 10.9965 20.5183 10.7637 17.6301C10.5305 14.7402 7.72161 12.6106 7.72161 12.6106C7.72161 12.6106 5.29146 15.1667 5.52221 18.0536ZM4.85479 28.0695C6.59304 30.389 10.108 30.6975 10.108 30.6975C10.108 30.6975 10.8054 27.2448 9.06712 24.9252C7.32887 22.6057 3.81357 22.2955 3.81357 22.2955C3.81357 22.2955 3.11655 25.75 4.85479 28.0695ZM8.18307 36.8174C10.8176 38.034 14.0601 36.6399 14.0601 36.6399C14.0601 36.6399 13.0293 33.2718 10.3948 32.0553C7.76028 30.8387 4.51778 32.2328 4.51778 32.2328C4.51778 32.2328 5.54856 35.6008 8.18307 36.8174ZM15.9246 42.8614C18.7548 43.5087 21.6398 41.4767 21.6398 41.4767C21.6398 41.4767 19.9346 38.3951 17.1041 37.7462C14.274 37.099 11.391 39.1323 11.391 39.1323C11.391 39.1323 13.0945 42.2142 15.9246 42.8614ZM11.9595 10.1676C10.3006 12.5473 11.111 15.9729 11.111 15.9729C11.111 15.9729 14.6157 15.5429 16.2746 13.1632C17.9336 10.7835 17.1228 7.35618 17.1228 7.35618C17.1228 7.35618 13.6185 7.78796 11.9595 10.1676Z" stroke="#40E0D0" stroke-width="1.5" stroke-linejoin="round"/>
<path d="M35.7056 20.993C36.4556 18.0323 39.2882 16.5206 45.4556 16.493C45.5542 16.4926 45.6519 16.5117 45.743 16.5493C45.8342 16.5869 45.917 16.6421 45.9867 16.7118C46.0564 16.7815 46.1117 16.8644 46.1492 16.9555C46.1868 17.0467 46.2059 17.1444 46.2056 17.243V30.743C46.2056 30.9419 46.1265 31.1326 45.9859 31.2733C45.8452 31.4139 45.6545 31.493 45.4556 31.493C39.4556 31.493 37.1376 32.7028 35.7056 34.493M35.7056 20.993C34.9556 18.0323 32.1229 16.5206 25.9556 16.493C25.857 16.4926 25.7593 16.5117 25.6681 16.5493C25.577 16.5869 25.4941 16.6421 25.4244 16.7118C25.3547 16.7815 25.2995 16.8644 25.2619 16.9555C25.2243 17.0467 25.2052 17.1444 25.2056 17.243V30.6525C25.2056 31.1156 25.4924 31.493 25.9556 31.493C31.9556 31.493 34.282 32.7117 35.7056 34.493M35.7056 20.993V34.493" stroke="#40E0D0" stroke-width="1.5" stroke-linecap="round" stroke-linejoin="round"/>
</svg>
