<svg width="72" height="43" viewBox="0 0 72 43" fill="none" xmlns="http://www.w3.org/2000/svg">
<path d="M65.8922 15.4646C65.6593 18.3528 62.8504 20.4823 62.8504 20.4823C62.8504 20.4823 60.4178 17.9292 60.649 15.0407C60.8825 12.149 63.6928 10.0216 63.6928 10.0216C63.6928 10.0216 66.1233 12.576 65.8922 15.4646ZM66.5562 25.4797C64.8179 27.7992 61.303 28.1077 61.303 28.1077C61.303 28.1077 60.6056 24.655 62.3438 22.3355C64.0821 20.0159 67.5991 19.7061 67.5991 19.7061C67.5991 19.7061 68.2961 23.1605 66.5562 25.4797ZM63.2296 34.228C60.5951 35.4446 57.3526 34.0505 57.3526 34.0505C57.3526 34.0505 58.3834 30.6824 61.0179 29.4658C63.6524 28.2493 66.8949 29.6434 66.8949 29.6434C66.8949 29.6434 65.8641 33.0114 63.2296 34.228ZM55.488 40.272C52.6579 40.9192 49.7728 38.8872 49.7728 38.8872C49.7728 38.8872 51.478 35.8057 54.3085 35.1568C57.1387 34.5095 60.0217 36.5429 60.0217 36.5429C60.0217 36.5429 58.3182 39.6248 55.488 40.272ZM59.4531 7.57822C61.1121 9.95789 60.3017 13.3835 60.3017 13.3835C60.3017 13.3835 56.797 12.9534 55.138 10.5738C53.479 8.19409 54.2898 4.76677 54.2898 4.76677C54.2898 4.76677 57.7941 5.19854 59.4531 7.57822Z" stroke="#40E0D0" stroke-width="1.5" stroke-linejoin="round"/>
<path d="M38.9281 9.5L39.7406 5.9875L37.0156 3.625L40.6156 3.3125L42.0156 0L43.4156 3.3125L47.0156 3.625L44.2906 5.9875L45.1031 9.5L42.0156 7.6375L38.9281 9.5Z" fill="#40E0D0"/>
<path d="M26.3085 9.5L27.121 5.9875L24.396 3.625L27.996 3.3125L29.396 0L30.796 3.3125L34.396 3.625L31.671 5.9875L32.4835 9.5L29.396 7.6375L26.3085 9.5Z" fill="#40E0D0"/>
<path d="M5.52221 15.4642C5.75504 18.3524 8.56393 20.4819 8.56393 20.4819C8.56393 20.4819 10.9965 17.9289 10.7637 15.0407C10.5305 12.1508 7.72161 10.0212 7.72161 10.0212C7.72161 10.0212 5.29146 12.5773 5.52221 15.4642ZM4.85479 25.4801C6.59304 27.7996 10.108 28.1081 10.108 28.1081C10.108 28.1081 10.8054 24.6554 9.06712 22.3358C7.32887 20.0163 3.81357 19.7061 3.81357 19.7061C3.81357 19.7061 3.11655 23.1606 4.85479 25.4801ZM8.18307 34.228C10.8176 35.4446 14.0601 34.0505 14.0601 34.0505C14.0601 34.0505 13.0293 30.6824 10.3948 29.4659C7.76028 28.2493 4.51778 29.6434 4.51778 29.6434C4.51778 29.6434 5.54856 33.0114 8.18307 34.228ZM15.9246 40.272C18.7548 40.9193 21.6398 38.8873 21.6398 38.8873C21.6398 38.8873 19.9346 35.8057 17.1041 35.1568C14.274 34.5096 11.391 36.5429 11.391 36.5429C11.391 36.5429 13.0945 39.6248 15.9246 40.272ZM11.9595 7.57823C10.3006 9.9579 11.111 13.3835 11.111 13.3835C11.111 13.3835 14.6157 12.9535 16.2746 10.5738C17.9336 8.1941 17.1228 4.76678 17.1228 4.76678C17.1228 4.76678 13.6185 5.19855 11.9595 7.57823Z" stroke="#40E0D0" stroke-width="1.5" stroke-linejoin="round"/>
<path d="M35.7061 18.4036C36.4561 15.4429 39.2887 13.9312 45.4561 13.9036C45.5546 13.9032 45.6523 13.9223 45.7435 13.9599C45.8347 13.9975 45.9175 14.0527 45.9872 14.1224C46.0569 14.1921 46.1122 14.275 46.1497 14.3661C46.1873 14.4573 46.2064 14.555 46.2061 14.6536V28.1536C46.2061 28.3525 46.127 28.5432 45.9864 28.6839C45.8457 28.8245 45.655 28.9036 45.4561 28.9036C39.4561 28.9036 37.1381 30.1134 35.7061 31.9036M35.7061 18.4036C34.9561 15.4429 32.1234 13.9312 25.9561 13.9036C25.8575 13.9032 25.7598 13.9223 25.6686 13.9599C25.5774 13.9975 25.4946 14.0527 25.4249 14.1224C25.3552 14.1921 25.3 14.275 25.2624 14.3661C25.2248 14.4573 25.2057 14.555 25.2061 14.6536V28.0631C25.2061 28.5262 25.4929 28.9036 25.9561 28.9036C31.9561 28.9036 34.2825 30.1223 35.7061 31.9036M35.7061 18.4036V31.9036" stroke="#40E0D0" stroke-width="1.5" stroke-linecap="round" stroke-linejoin="round"/>
</svg>
