<svg width="72" height="49" viewBox="0 0 72 49" fill="none" xmlns="http://www.w3.org/2000/svg">
<path d="M65.8922 21.176C65.6593 24.0642 62.8504 26.1937 62.8504 26.1937C62.8504 26.1937 60.4178 23.6407 60.649 20.7521C60.8825 17.8605 63.6928 15.733 63.6928 15.733C63.6928 15.733 66.1233 18.2874 65.8922 21.176ZM66.5562 31.1911C64.8179 33.5107 61.303 33.8191 61.303 33.8191C61.303 33.8191 60.6056 30.3664 62.3438 28.0469C64.0821 25.7274 67.5991 25.4176 67.5991 25.4176C67.5991 25.4176 68.2961 28.872 66.5562 31.1911ZM63.2296 39.9394C60.5951 41.156 57.3526 39.7619 57.3526 39.7619C57.3526 39.7619 58.3834 36.3939 61.0179 35.1773C63.6524 33.9607 66.8949 35.3548 66.8949 35.3548C66.8949 35.3548 65.8641 38.7228 63.2296 39.9394ZM55.488 45.9834C52.6579 46.6307 49.7728 44.5987 49.7728 44.5987C49.7728 44.5987 51.478 41.5171 54.3085 40.8682C57.1387 40.221 60.0217 42.2543 60.0217 42.2543C60.0217 42.2543 58.3182 45.3362 55.488 45.9834ZM59.4531 13.2896C61.1121 15.6693 60.3017 19.0949 60.3017 19.0949C60.3017 19.0949 56.797 18.6649 55.138 16.2852C53.479 13.9055 54.2898 10.4782 54.2898 10.4782C54.2898 10.4782 57.7941 10.91 59.4531 13.2896Z" stroke="#40E0D0" stroke-width="1.5" stroke-linejoin="round"/>
<path d="M5.52221 21.1756C5.75504 24.0638 8.56393 26.1934 8.56393 26.1934C8.56393 26.1934 10.9965 23.6403 10.7637 20.7521C10.5305 17.8622 7.72161 15.7327 7.72161 15.7327C7.72161 15.7327 5.29146 18.2888 5.52221 21.1756ZM4.85479 31.1915C6.59304 33.5111 10.108 33.8195 10.108 33.8195C10.108 33.8195 10.8054 30.3668 9.06712 28.0473C7.32887 25.7277 3.81357 25.4176 3.81357 25.4176C3.81357 25.4176 3.11655 28.872 4.85479 31.1915ZM8.18307 39.9394C10.8176 41.156 14.0601 39.7619 14.0601 39.7619C14.0601 39.7619 13.0293 36.3939 10.3948 35.1773C7.76028 33.9607 4.51778 35.3548 4.51778 35.3548C4.51778 35.3548 5.54856 38.7229 8.18307 39.9394ZM15.9246 45.9835C18.7548 46.6307 21.6398 44.5987 21.6398 44.5987C21.6398 44.5987 19.9346 41.5171 17.1041 40.8682C14.274 40.221 11.391 42.2543 11.391 42.2543C11.391 42.2543 13.0945 45.3362 15.9246 45.9835ZM11.9595 13.2897C10.3006 15.6693 11.111 19.0949 11.111 19.0949C11.111 19.0949 14.6157 18.6649 16.2746 16.2852C17.9336 13.9055 17.1228 10.4782 17.1228 10.4782C17.1228 10.4782 13.6185 10.91 11.9595 13.2897Z" stroke="#40E0D0" stroke-width="1.5" stroke-linejoin="round"/>
<path d="M35.7061 24.115C36.4561 21.1544 39.2887 19.6427 45.4561 19.615C45.5546 19.6146 45.6523 19.6338 45.7435 19.6713C45.8347 19.7089 45.9175 19.7641 45.9872 19.8338C46.0569 19.9036 46.1122 19.9864 46.1497 20.0775C46.1873 20.1687 46.2064 20.2664 46.2061 20.365V33.865C46.2061 34.0639 46.127 34.2547 45.9864 34.3953C45.8457 34.536 45.655 34.615 45.4561 34.615C39.4561 34.615 37.1381 35.8248 35.7061 37.615M35.7061 24.115C34.9561 21.1544 32.1234 19.6427 25.9561 19.615C25.8575 19.6146 25.7598 19.6338 25.6686 19.6713C25.5774 19.7089 25.4946 19.7641 25.4249 19.8338C25.3552 19.9036 25.3 19.9864 25.2624 20.0775C25.2248 20.1687 25.2057 20.2664 25.2061 20.365V33.7745C25.2061 34.2376 25.4929 34.615 25.9561 34.615C31.9561 34.615 34.2825 35.8337 35.7061 37.615M35.7061 24.115V37.615" stroke="#40E0D0" stroke-width="1.5" stroke-linecap="round" stroke-linejoin="round"/>
<g clip-path="url(#clip0_195_109)">
<path d="M36.2894 2.89844C36.6061 2.70703 36.8172 2.35977 36.8172 1.96875C36.8172 1.36445 36.3199 0.875 35.7061 0.875C35.0922 0.875 34.5949 1.36445 34.5949 1.96875C34.5949 2.3625 34.8061 2.70703 35.1227 2.89844L33.5311 6.03203C33.2783 6.52969 32.6227 6.67188 32.1811 6.32461L29.7061 4.375C29.8449 4.1918 29.9283 3.96484 29.9283 3.71875C29.9283 3.11445 29.4311 2.625 28.8172 2.625C28.2033 2.625 27.7061 3.11445 27.7061 3.71875C27.7061 4.32305 28.2033 4.8125 28.8172 4.8125H28.8366L30.1061 11.6867C30.2588 12.518 30.9949 13.125 31.8561 13.125H39.5561C40.4144 13.125 41.1505 12.5207 41.3061 11.6867L42.5755 4.8125H42.5949C43.2088 4.8125 43.7061 4.32305 43.7061 3.71875C43.7061 3.11445 43.2088 2.625 42.5949 2.625C41.9811 2.625 41.4838 3.11445 41.4838 3.71875C41.4838 3.96484 41.5672 4.1918 41.7061 4.375L39.2311 6.32461C38.7894 6.67188 38.1338 6.52969 37.8811 6.03203L36.2894 2.89844Z" fill="#40E0D0"/>
</g>
<defs>
<clipPath id="clip0_195_109">
<rect width="16" height="14" fill="white" transform="translate(27.7061)"/>
</clipPath>
</defs>
</svg>
