<svg width="23" height="23" viewBox="0 0 23 23" fill="none" xmlns="http://www.w3.org/2000/svg">
<path d="M8.51209e-06 11.2282C8.51209e-06 5.02688 5.02689 0 11.2282 0C17.4296 0 22.4565 5.02688 22.4565 11.2282C22.4565 17.4296 17.4296 22.4565 11.2282 22.4565H8.51209e-06L3.28876 19.1677C2.24462 18.1262 1.41657 16.8886 0.852184 15.5261C0.287795 14.1636 -0.00181009 12.703 8.51209e-06 11.2282ZM5.421 20.2108H11.2282C13.0048 20.2108 14.7415 19.684 16.2187 18.697C17.6959 17.71 18.8472 16.3071 19.5271 14.6657C20.207 13.0244 20.3848 11.2183 20.0382 9.47582C19.6916 7.73337 18.8361 6.13283 17.5799 4.87659C16.3237 3.62035 14.7231 2.76484 12.9807 2.41825C11.2382 2.07165 9.43211 2.24954 7.79076 2.92941C6.14941 3.60928 4.74652 4.7606 3.7595 6.23778C2.77248 7.71496 2.24566 9.45165 2.24566 11.2282C2.24566 13.6446 3.20118 15.9048 4.87643 17.5801L6.46411 19.1677L5.421 20.2108ZM10.1054 4.4913H12.3511V17.9652H10.1054V4.4913ZM5.61413 7.85977H7.85978V14.5967H5.61413V7.85977ZM14.5967 7.85977H16.8424V14.5967H14.5967V7.85977Z" fill="white"/>
</svg>
